<svg class="kc-header-sinqia" version="1.1" x="0px" y="0px" viewBox="0 0 113 35.43" xml:space="preserve"  xmlns="http://www.w3.org/2000/svg">
<path class="st0" d="M67.63,0.03c-5.11,0.01-9.25,4.13-9.27,9.24v6.42c0.17,5.12,4.46,9.14,9.58,8.97c4.89-0.16,8.81-4.08,8.97-8.97
                        V9.27C76.89,4.16,72.74,0.03,67.63,0.03z M74.74,15.72c-0.15,3.92-3.45,6.99-7.37,6.84c-3.72-0.14-6.7-3.12-6.84-6.84V9.27
                        c-0.15-3.92,2.91-7.22,6.84-7.37c3.92-0.15,7.22,2.91,7.37,6.84c0.01,0.18,0.01,0.36,0,0.53V15.72z M16.44,17.72
                        c0.07,2.24-1,4.36-2.85,5.62c-1.82,1.15-3.93,1.72-6.08,1.66c-2.45,0.02-4.87-0.6-7-1.81c-0.26-0.15-0.44-0.4-0.49-0.69
                        c-0.06-0.29,0-0.6,0.17-0.85l0,0c0.33-0.47,0.98-0.59,1.46-0.28c1.81,1.03,3.86,1.56,5.94,1.54c1.57,0,6.7-0.37,6.7-5.17
                        c0-2.51-2.21-3.21-5.84-4.07C6.59,13.33,4.8,12.7,3.13,11.8c-1.77-1.06-2.8-3.01-2.69-5.06c-0.08-2.06,0.9-4.01,2.6-5.17
                        c1.62-1.04,3.52-1.56,5.44-1.51c2.28-0.01,4.53,0.56,6.53,1.66l0.09,0.06c0.51,0.3,0.67,0.95,0.38,1.45s-0.95,0.67-1.45,0.38
                        l-0.43-0.23c-1.6-0.8-3.36-1.22-5.15-1.21c-5.24,0-5.81,3.2-5.81,4.57c0,3,2.41,3.84,6.39,4.81c3.45,0.82,7.42,1.79,7.42,6.16
                        L16.44,17.72z M25.25,2v21.81c0,0.61-0.49,1.1-1.1,1.1c-0.61,0-1.1-0.49-1.1-1.1V1.99c0-0.61,0.49-1.1,1.1-1.1
                        c0.61,0,1.1,0.49,1.1,1.1V2z M50.43,24.91c-0.6,0-1.08-0.48-1.08-1.08c0,0,0-0.01,0-0.01V9.27c0-3.93-3.18-7.11-7.11-7.11
                        s-7.11,3.18-7.11,7.11l0,0v14.55c0,0.6-0.48,1.08-1.08,1.08c-0.6,0-1.08-0.48-1.08-1.08c0,0,0,0,0,0V9.27
                        c0-5.12,4.15-9.27,9.27-9.27s9.27,4.15,9.27,9.27v14.55c0.01,0.6-0.47,1.08-1.07,1.09C50.44,24.91,50.44,24.91,50.43,24.91z
                        M76.87,24.21v10.12c0,0.61-0.49,1.1-1.1,1.1c-0.61,0-1.1-0.49-1.1-1.1c0,0,0,0,0,0V24.21c0-0.61,0.49-1.1,1.1-1.1
                        C76.38,23.11,76.87,23.6,76.87,24.21C76.87,24.21,76.87,24.21,76.87,24.21z M86.64,1.99v21.82c0,0.61-0.49,1.1-1.1,1.1
                        c-0.61,0-1.1-0.49-1.1-1.1V1.99c0-0.61,0.49-1.1,1.1-1.1C86.15,0.89,86.64,1.38,86.64,1.99z M112.96,7.74c0-4.9-3.19-7.71-8.7-7.71
                        c-2.73,0.01-5.42,0.68-7.84,1.95L96.2,2.11c-0.52,0.33-0.67,1.03-0.34,1.55c0,0,0.01,0.01,0.01,0.01l0,0
                        c0.32,0.51,0.99,0.68,1.52,0.38c0.15-0.09,0.3-0.17,0.46-0.25c2.01-0.97,4.21-1.49,6.45-1.53c2.4,0,6.43,0.72,6.43,5.54
                        c0,0.21-0.03,0.43-0.09,0.63c-0.47,1.55-2.79,2-6.36,2.58c-4.39,0.69-9.86,1.54-9.86,7c0,4.43,3.14,7,8.62,7
                        c2.93,0.08,5.73-1.21,7.57-3.49l0.19-0.27v2.58c0,0.61,0.49,1.1,1.1,1.1l0,0c0.61,0,1.1-0.49,1.1-1.1L112.96,7.74z M110.76,13.98
                        c0,6.42-4.15,8.77-7.64,8.77c-5.31,0-6.54-2.57-6.54-4.73c0-3.43,3.32-4.16,8.21-4.88c1.99-0.16,3.94-0.65,5.77-1.47l0.2-0.12
                        L110.76,13.98z"></path></svg>
