<?xml version="1.0" standalone="no"?>
<!DOCTYPE svg PUBLIC "-//W3C//DTD SVG 20010904//EN"
 "http://www.w3.org/TR/2001/REC-SVG-20010904/DTD/svg10.dtd">
<svg version="1.0" xmlns="http://www.w3.org/2000/svg"
 width="260.000000pt" height="260.000000pt" viewBox="0 0 260.000000 260.000000"
 preserveAspectRatio="xMidYMid meet">
<metadata>
Created by potrace 1.11, written by Peter Selinger 2001-2013
</metadata>
<g transform="translate(0.000000,260.000000) scale(0.100000,-0.100000)"
fill="#000000" stroke="none">
<path d="M538 2465 c-2 -1 -33 -5 -71 -9 -75 -7 -181 -43 -242 -83 -125 -80
-188 -213 -180 -373 7 -141 67 -243 183 -313 53 -32 171 -80 225 -91 180 -38
348 -92 405 -130 69 -46 95 -101 89 -191 -12 -202 -184 -317 -462 -309 -113 3
-209 25 -305 71 -91 43 -98 44 -132 27 -30 -16 -45 -62 -28 -93 22 -42 139
-94 285 -128 109 -26 319 -23 418 5 250 71 378 230 372 463 -2 103 -33 176
-99 237 -76 70 -145 99 -394 163 -266 69 -337 106 -385 199 -26 50 -28 62 -24
131 9 148 93 238 252 270 135 28 322 2 448 -62 88 -44 133 -34 144 34 4 27 1
38 -18 56 -47 44 -199 100 -317 116 -51 7 -160 14 -164 10z"/>
<path d="M1948 2465 c-2 -1 -29 -5 -61 -9 -104 -11 -240 -77 -327 -158 -84
-79 -150 -193 -176 -305 -23 -101 -23 -611 1 -703 72 -284 331 -479 615 -466
95 5 155 19 233 55 154 70 273 205 328 373 23 71 24 83 24 388 0 302 -1 318
-23 390 -76 245 -294 415 -554 434 -31 2 -58 3 -60 1z m157 -163 c137 -43 251
-147 302 -274 33 -80 35 -106 36 -383 0 -200 -3 -261 -17 -345 -9 -52 -92
-178 -149 -224 -187 -153 -453 -141 -623 29 -67 66 -104 130 -127 217 -20 76
-21 568 -1 643 43 163 174 296 335 339 58 16 192 15 244 -2z"/>
<path d="M2483 940 c-12 -5 -26 -17 -31 -27 -14 -28 -12 -726 3 -746 33 -45
104 -39 124 12 6 16 10 159 10 371 -1 307 -3 348 -17 367 -20 26 -58 36 -89
23z"/>
</g>
</svg>
